<?xml version="1.0" encoding="UTF-8" standalone="no"?>
<!-- Created with Inkscape (http://www.inkscape.org/) -->

<svg
   xmlns:dc="http://purl.org/dc/elements/1.1/"
   xmlns:cc="http://creativecommons.org/ns#"
   xmlns:rdf="http://www.w3.org/1999/02/22-rdf-syntax-ns#"
   xmlns:svg="http://www.w3.org/2000/svg"
   xmlns="http://www.w3.org/2000/svg"
   version="1.1"
   width="4.0050001in"
   height="2.4693601in"
   viewBox="0 0 4334 2672"
   id="svg2"
   xml:space="preserve"
   style="fill-rule:evenodd"><metadata
   id="metadata14"><rdf:RDF><cc:Work
       rdf:about=""><dc:format>image/svg+xml</dc:format><dc:type
         rdf:resource="http://purl.org/dc/dcmitype/StillImage" /><dc:title></dc:title></cc:Work></rdf:RDF></metadata>
 <defs
   id="defs4">
  <style
   type="text/css"
   id="style6" />
 </defs>
 <g
   transform="matrix(0.4910285,0,0,0.4910285,734.05938,187.8252)"
   id="Layer_x0020_1">
  <metadata
   id="CorelCorpID_0Corel-Layer" />
  <path
   d="m 2052.2168,0 1662,0 c 734,0 1336,601 1336,1336 l 0,0 c 0,735 -602,1336 -1336,1336 l -1662,0 C 1317.2171,2672 716.21747,2071 716.21747,1336 l 0,0 C 716.21747,601 1317.2171,0 2052.2168,0 z m -63,2191 c -31,-26 -35,-72 -9,-104 26,-31 72,-35 103,-9 l 409,330 c 28,25 63.5874,40 112,43 21.7025,1.3414 15.5742,2.9026 80.739,4.4962 165.9713,4.0589 436.0146,17.7397 485.8351,0.3289 49.8205,-17.4108 -434.9208,-376.0837 -612.5741,-544.8251 -31,-25 -35,-72 -9,-103 26,-32 72,-36 103,-10 l 741,610 c 31,26 77,46 181,43 l 0,0 113,0 c 142,0 278,-27 404,-76 l -945,-781 c -31,-26 -36,-73 -10,-104 26,-31 73,-35 104,-9 l 893,738 c 80,69 160,52 232,1 85,-66 160,-143 224,-230 l -957,-816 c -138,-90 -242,-130 -356,-38 l -465,465 c -82,71 -307,157 -478,33 -80,-58 -123,-136 -134,-222 -11,-89 11,-188 64,-282 l 339,-608 c 137,-242 -116,-291 -274,-301 l -249,0 C 1465.217,221 964.21736,723 964.21736,1336 l 0,0 c 0,613 500.99964,1115 1114.99944,1115 l 181.3364,7.2377 c 12.8749,-7.5515 51.9607,3.9595 -70.2854,-101.8618 z m 2796,-664 c -73,156 -127,216 -324,79 l -763,-626 c -113,-100 -386,-174 -555,33 l -382,386 c -208,235 -489,88 -310,-249 l 457,-687 c 150,-219 260,-222 550,-242 l 229,0 c 613,0 1115,502 1115,1115 l 0,0 c 0,65 -6,129 -17,191 z"
   id="path10"
   style="fill:#373435" />
 </g>
<text
   x="480.95435"
   y="2343.2278"
   id="text2991"
   xml:space="preserve"
   style="font-size:727.25561523px;font-style:normal;font-weight:normal;line-height:125%;letter-spacing:0px;word-spacing:0px;fill:#000000;fill-opacity:1;stroke:none;font-family:Sans;-inkscape-font-specification:Myriad Pro"><tspan
     x="480.95435"
     y="2343.2278"
     id="tspan2993"
     style="font-style:normal;font-variant:normal;font-weight:normal;font-stretch:normal;fill:#000000;font-family:Myriad Pro;-inkscape-font-specification:Myriad Pro">HandShake</tspan></text>
</svg>